<svg width="32" height="32" viewBox="0 0 32 32" fill="none" xmlns="http://www.w3.org/2000/svg">
<path d="M0.5 3C0.5 1.61929 1.61929 0.5 3 0.5H29C30.3807 0.5 31.5 1.61929 31.5 3V29C31.5 30.3807 30.3807 31.5 29 31.5H3C1.61929 31.5 0.5 30.3807 0.5 29V3Z" fill="#161616" stroke="#161616"/>
<path fill-rule="evenodd" clip-rule="evenodd" d="M9.13726 8.15686C9.13726 6.96569 10.1029 6 11.2941 6H23.8431C25.0343 6 26 6.96569 26 8.15686V20.7059C26 21.8971 25.0343 22.8627 23.8431 22.8627H11.2941C10.1029 22.8627 9.13726 21.8971 9.13726 20.7059V8.15686ZM11.2941 7.17647C10.7526 7.17647 10.3137 7.61537 10.3137 8.15686V20.7059C10.3137 21.2474 10.7526 21.6863 11.2941 21.6863H23.8431C24.3846 21.6863 24.8235 21.2474 24.8235 20.7059V8.15686C24.8235 7.61537 24.3846 7.17647 23.8431 7.17647H11.2941ZM6.58824 10.3137C6.91317 10.3137 7.17647 10.577 7.17647 10.902V23.8431C7.17647 24.3846 7.61537 24.8235 8.15686 24.8235H21.098C21.423 24.8235 21.6863 25.0868 21.6863 25.4118C21.6863 25.7367 21.423 26 21.098 26H8.15686C6.96569 26 6 25.0343 6 23.8431V10.902C6 10.577 6.26331 10.3137 6.58824 10.3137ZM20.3801 14.4314L15.8037 17.2917V11.5711L20.3801 14.4314ZM16.1272 10.386C15.4742 9.97775 14.6272 10.4473 14.6272 11.2173V17.6455C14.6272 18.4155 15.4742 18.8848 16.1272 18.4767L21.2696 15.2628C21.884 14.8787 21.884 13.9841 21.2696 13.6L16.1272 10.386Z" fill="white"/>
</svg>
