<svg width="32" height="32" viewBox="0 0 32 32" fill="none" xmlns="http://www.w3.org/2000/svg">
<path d="M0.5 3C0.5 1.61929 1.61929 0.5 3 0.5H29C30.3807 0.5 31.5 1.61929 31.5 3V29C31.5 30.3807 30.3807 31.5 29 31.5H3C1.61929 31.5 0.5 30.3807 0.5 29V3Z" fill="#161616" stroke="#161616"/>
<path d="M13.7405 8.69746H6.45522C6.20383 8.69746 6 8.90145 6 9.15284V16.4381C6 16.5589 6.04787 16.6746 6.13324 16.7601C6.21877 16.8455 6.33448 16.8934 6.45522 16.8934H13.7405C13.8613 16.8934 13.9771 16.8455 14.0625 16.7601C14.1479 16.6746 14.1959 16.5589 14.1959 16.4381V9.15284C14.1959 9.0321 14.1479 8.91623 14.0625 8.83086C13.9771 8.74549 13.8613 8.69746 13.7405 8.69746H13.7405ZM13.2851 15.9828H6.91075V9.60837H13.2851V15.9828Z" fill="white"/>
<path d="M13.7405 17.8041H6.45522C6.20383 17.8041 6 18.0079 6 18.2593V25.5446C6 25.6654 6.04787 25.7812 6.13324 25.8666C6.21877 25.952 6.33448 26 6.45522 26H13.7405C13.8613 26 13.9771 25.952 14.0625 25.8666C14.1479 25.7812 14.1959 25.6654 14.1959 25.5446V18.2593C14.1959 18.1386 14.1479 18.0229 14.0625 17.9374C13.9771 17.852 13.8613 17.8041 13.7405 17.8041L13.7405 17.8041ZM13.2851 25.089H6.91075V18.7146H13.2851V25.089Z" fill="white"/>
<path d="M22.8467 17.8041H15.5618C15.3103 17.8041 15.1064 18.0079 15.1064 18.2593V25.5446C15.1064 25.6654 15.1545 25.7812 15.2398 25.8666C15.3252 25.952 15.4411 26 15.5618 26H22.8467C22.9675 26 23.0833 25.952 23.1687 25.8666C23.2541 25.7812 23.3021 25.6654 23.3021 25.5446V18.2593C23.3021 18.1386 23.2541 18.0229 23.1687 17.9374C23.0833 17.852 22.9675 17.8041 22.8467 17.8041V17.8041ZM22.3915 25.089H16.0167V18.7146H22.3915V25.089Z" fill="white"/>
<path d="M26.7171 9.70391L20.4064 6.06138C20.3013 6.00055 20.1765 5.98408 20.0594 6.01579C19.9423 6.04735 19.8426 6.12434 19.7825 6.22984L16.14 12.5406C16.0792 12.6455 16.0627 12.7704 16.0944 12.8876C16.126 13.0047 16.2031 13.1042 16.3084 13.1644L22.6192 16.807C22.7241 16.8678 22.8491 16.8841 22.9662 16.8526C23.0833 16.8209 23.183 16.7439 23.2431 16.6385L26.8856 10.3277C26.9464 10.2227 26.9629 10.0978 26.9312 9.98076C26.8996 9.86368 26.8225 9.76398 26.7171 9.70391ZM22.6785 15.7825L17.16 12.5952L20.3473 7.07664L25.8659 10.264L22.6785 15.7825Z" fill="white"/>
</svg>
