<svg width="32" height="32" viewBox="0 0 32 32" fill="none" xmlns="http://www.w3.org/2000/svg">
<path d="M3 0.5H29C30.3807 0.5 31.5 1.61929 31.5 3V29C31.5 30.3807 30.3807 31.5 29 31.5H3C1.61929 31.5 0.5 30.3807 0.5 29V3C0.5 1.61929 1.61929 0.5 3 0.5Z" fill="#161616" stroke="#161616"/>
<path d="M16 24C15.5582 24 15.2 23.6419 15.2 23.2V16.8H8.80004C8.35827 16.8 8 16.442 8 16C8 15.5582 8.35825 15.2 8.80004 15.2H15.2V8.80004C15.2 8.35827 15.5582 8 16 8C16.4418 8 16.8 8.35825 16.8 8.80004V15.2H23.2C23.6417 15.2 24 15.5582 24 16C24 16.4418 23.6417 16.8 23.2 16.8H16.8V23.2C16.8 23.6417 16.442 24 16 24V24Z" fill="white"/>
</svg>
