<svg width="32" height="32" viewBox="0 0 32 32" fill="none" xmlns="http://www.w3.org/2000/svg">
<path d="M3 0.5H29C30.3807 0.5 31.5 1.61929 31.5 3V29C31.5 30.3807 30.3807 31.5 29 31.5H3C1.61929 31.5 0.5 30.3807 0.5 29V3C0.5 1.61929 1.61929 0.5 3 0.5Z" fill="#161616" stroke="#161616"/>
<path d="M9.61839 12.628V19H7.62039V16.516H5.72139V19H3.72339V12.628H5.72139V14.923H7.62039V12.628H9.61839Z" fill="white"/>
<path d="M15.5213 12.628V14.212H13.8293V19H11.8313V14.212H10.1573V12.628H15.5213Z" fill="white"/>
<path d="M23.7222 12.628V19H21.7332V15.823L20.7522 19H19.0422L18.0612 15.823V19H16.0632V12.628H18.5112L19.9152 16.453L21.2832 12.628H23.7222Z" fill="white"/>
<path d="M26.6218 17.488H28.5478V19H24.6238V12.628H26.6218V17.488Z" fill="white"/>
</svg>
