<svg width="32" height="32" viewBox="0 0 32 32" fill="none" xmlns="http://www.w3.org/2000/svg">
<path d="M3 0.5H29C30.3807 0.5 31.5 1.61929 31.5 3V29C31.5 30.3807 30.3807 31.5 29 31.5H3C1.61929 31.5 0.5 30.3807 0.5 29V3C0.5 1.61929 1.61929 0.5 3 0.5Z" fill="#161616" stroke="#161616"/>
<path d="M8.72514 26.1286H23.2749C23.9974 26.1278 24.6901 25.8404 25.2008 25.3296C25.7118 24.8187 25.9991 24.126 26 23.4036V7.72486C25.9991 7.00248 25.7118 6.3098 25.2008 5.79901C24.69 5.28822 23.9974 5.00076 23.2749 5H8.72514C8.00259 5.00078 7.30992 5.28823 6.79917 5.79901C6.28822 6.3098 6.00092 7.00248 6 7.72486V23.4036C6.00094 24.126 6.28823 24.8187 6.79917 25.3296C7.30996 25.8404 8.00263 26.1279 8.72514 26.1286ZM23.2749 25.1945H8.72514C8.28409 25.1931 7.85918 25.0287 7.532 24.7328C7.20498 24.4371 6.99887 24.0308 6.95319 23.5921L12.9751 18.0918L15.1995 20.3161C15.2871 20.4037 15.4059 20.4529 15.5298 20.4529C15.6537 20.4529 15.7725 20.4037 15.8601 20.3161L21.1113 15.0649L25.0657 19.019L25.0656 23.4038C25.0651 23.8786 24.8764 24.3337 24.5406 24.6695C24.2048 25.0053 23.7495 25.194 23.2747 25.1946L23.2749 25.1945ZM8.72514 5.93442H23.2749C23.7497 5.93489 24.2049 6.12365 24.5405 6.45942C24.8763 6.79504 25.0652 7.25014 25.0657 7.72494V17.6977L21.4416 14.0739C21.354 13.9863 21.2353 13.937 21.1114 13.937C20.9876 13.937 20.8687 13.9863 20.7811 14.0739L15.5299 19.3251L13.3201 17.1156C13.1435 16.9387 12.8592 16.9323 12.675 17.1009L6.93453 22.3441V7.72465C6.935 7.24986 7.12393 6.79472 7.45969 6.45913C7.79531 6.12335 8.25058 5.93457 8.72537 5.93413L8.72514 5.93442Z" fill="white"/>
<path d="M13.8683 13.6103C14.4164 13.6105 14.9418 13.3928 15.3292 13.0054C15.7166 12.618 15.9343 12.0925 15.9343 11.5447C15.9343 10.9969 15.7166 10.4714 15.3292 10.084C14.9418 9.69647 14.4163 9.47894 13.8685 9.47894C13.3206 9.47894 12.7952 9.69664 12.4078 10.084C12.0204 10.4714 11.8027 10.9969 11.8027 11.5447C11.8034 12.0924 12.0212 12.6174 12.4084 13.0047C12.7957 13.392 13.3208 13.6097 13.8684 13.6104L13.8683 13.6103ZM13.8683 10.413C14.1685 10.413 14.4564 10.5322 14.6686 10.7444C14.8808 10.9567 15 11.2444 15.0002 11.5445C15.0002 11.8446 14.881 12.1324 14.6688 12.3446C14.4565 12.5568 14.1688 12.6762 13.8687 12.6762C13.5685 12.6762 13.2806 12.557 13.0684 12.3448C12.8562 12.1327 12.737 11.8448 12.737 11.5447C12.7373 11.2447 12.8567 10.9571 13.0687 10.7449C13.2808 10.5328 13.5684 10.4135 13.8684 10.413L13.8683 10.413Z" fill="white"/>
</svg>
