<svg width="32" height="32" viewBox="0 0 32 32" fill="none" xmlns="http://www.w3.org/2000/svg">
<path d="M3 0.5H29C30.3807 0.5 31.5 1.61929 31.5 3V29C31.5 30.3807 30.3807 31.5 29 31.5H3C1.61929 31.5 0.5 30.3807 0.5 29V3C0.5 1.61929 1.61929 0.5 3 0.5Z" fill="#161616" stroke="#161616"/>
<path fill-rule="evenodd" clip-rule="evenodd" d="M10.6 15.5L8.8 15.5C7.80589 15.5 7 14.8284 7 14L7 7.5C7 6.67157 7.80589 6 8.8 6L23.2 6C24.1941 6 25 6.67157 25 7.5L25 24.5C25 25.3284 24.1941 26 23.2 26L10.6 26L10.6 15.5ZM11.8 25L11.8 14.5L8.8 14.5C8.46863 14.5 8.2 14.2761 8.2 14L8.2 7.5C8.2 7.22386 8.46863 7 8.8 7L23.2 7C23.5314 7 23.8 7.22386 23.8 7.5L23.8 24.5C23.8 24.7761 23.5314 25 23.2 25L11.8 25Z" fill="white"/>
<path fill-rule="evenodd" clip-rule="evenodd" d="M8.2 24.5L8.2 18C8.2 17.7239 8.46863 17.5 8.8 17.5L10.6 17.5L10.6 25L8.8 25C8.46863 25 8.2 24.7761 8.2 24.5ZM7 18C7 17.1716 7.80589 16.5 8.8 16.5L11.8 16.5L11.8 26L8.8 26C7.80589 26 7 25.3284 7 24.5L7 18Z" fill="white"/>
<line x1="14" y1="11.5" x2="21" y2="11.5" stroke="white"/>
<line x1="14" y1="14.5" x2="21" y2="14.5" stroke="white"/>
<line x1="14" y1="17.5" x2="21" y2="17.5" stroke="white"/>
<line x1="14" y1="20.5" x2="21" y2="20.5" stroke="white"/>
</svg>
