<svg width="32" height="32" viewBox="0 0 32 32" fill="none" xmlns="http://www.w3.org/2000/svg">
<path d="M3 0.5H29C30.3807 0.5 31.5 1.61929 31.5 3V29C31.5 30.3807 30.3807 31.5 29 31.5H3C1.61929 31.5 0.5 30.3807 0.5 29V3C0.5 1.61929 1.61929 0.5 3 0.5Z" fill="#161616" stroke="#161616"/>
<path d="M10.7127 15.2818C11.1092 15.5651 11.2011 16.1161 10.9178 16.5126C10.8613 16.5919 10.7919 16.6612 10.7127 16.7179L7.39522 19.0874C6.99861 19.3707 6.44755 19.2788 6.16434 18.8823C6.05748 18.7326 6 18.5534 6 18.3695V13.6303C6 13.143 6.39507 12.748 6.88238 12.748C7.06625 12.748 7.24552 12.8055 7.39519 12.9124L10.7127 15.2818ZM7.17647 14.2017V17.7981L9.69372 16L7.17647 14.2017ZM25.9998 13.6301V18.3694C25.9998 18.8567 25.6047 19.2516 25.1174 19.2516C24.9335 19.2516 24.7543 19.1941 24.6046 19.0873L21.2871 16.7177C20.8906 16.4344 20.7987 15.8833 21.082 15.4868C21.1385 15.4076 21.2078 15.3383 21.2871 15.2816L24.6046 12.9121C25.0012 12.6288 25.5522 12.7207 25.8355 13.1172C25.9423 13.2669 25.9998 13.4461 25.9998 13.63L25.9998 13.6301ZM22.3059 15.9998L24.8231 17.7979V14.2016L22.3059 15.9998ZM21.8821 10.706V6.58817C21.8821 6.2634 22.1453 6 22.4702 6C22.7952 6 23.0586 6.26339 23.0586 6.58817V11.2942C23.0586 11.6191 22.7952 11.8825 22.4702 11.8825H9.52936C9.20445 11.8825 8.94105 11.6191 8.94105 11.2942V6.58817C8.94105 6.2634 9.20444 6 9.52936 6C9.85428 6 10.1175 6.26339 10.1175 6.58817V10.706H21.8821ZM10.1176 25.4118C10.1176 25.7366 9.85436 26 9.52944 26C9.20452 26 8.94112 25.7366 8.94112 25.4118V20.7058C8.94112 20.3809 9.20451 20.1175 9.52944 20.1175H22.4703C22.7952 20.1175 23.0586 20.3809 23.0586 20.7058V25.4118C23.0586 25.7366 22.7952 26 22.4703 26C22.1454 26 21.8821 25.7366 21.8821 25.4118V21.294H10.1177L10.1176 25.4118Z" fill="white"/>
</svg>
