<svg width="32" height="32" viewBox="0 0 32 32" fill="none" xmlns="http://www.w3.org/2000/svg">
<path d="M3 0.5H29C30.3807 0.5 31.5 1.61929 31.5 3V29C31.5 30.3807 30.3807 31.5 29 31.5H3C1.61929 31.5 0.5 30.3807 0.5 29V3C0.5 1.61929 1.61929 0.5 3 0.5Z" fill="#161616" stroke="#161616"/>
<path fill-rule="evenodd" clip-rule="evenodd" d="M25.0476 16.2063H6.95238L6.95238 25.0952H25.0476V16.2063ZM6 15.254V25.0952C6 25.6212 6.4264 26.0476 6.95238 26.0476H25.0476C25.5736 26.0476 26 25.6212 26 25.0952V15.254H6Z" fill="white"/>
<path fill-rule="evenodd" clip-rule="evenodd" d="M25.0476 13.0317H6.95238V15.254H25.0476V13.0317ZM6.95238 12.0794C6.4264 12.0794 6 12.5058 6 13.0317V16.2063H26V13.0317C26 12.5058 25.5736 12.0794 25.0476 12.0794H6.95238Z" fill="white"/>
<path fill-rule="evenodd" clip-rule="evenodd" d="M25.0476 6.95238H6.95238L6.95238 9.1746H25.0476V6.95238ZM6.95238 6C6.4264 6 6 6.4264 6 6.95238V9.1746C6 9.70059 6.4264 10.127 6.95238 10.127H25.0476C25.5736 10.127 26 9.70059 26 9.1746V6.95238C26 6.4264 25.5736 6 25.0476 6H6.95238Z" fill="white"/>
<line x1="9.5" y1="19" x2="22.5" y2="19" stroke="white"/>
<line x1="9.5" y1="22" x2="22.5" y2="22" stroke="white"/>
</svg>
