<svg width="32" height="32" viewBox="0 0 32 32" fill="none" xmlns="http://www.w3.org/2000/svg">
<path d="M3 0.5H29C30.3807 0.5 31.5 1.61929 31.5 3V29C31.5 30.3807 30.3807 31.5 29 31.5H3C1.61929 31.5 0.5 30.3807 0.5 29V3C0.5 1.61929 1.61929 0.5 3 0.5Z" fill="#161616" stroke="#161616"/>
<path d="M14.9293 12.628V16.741C14.9293 17.503 14.7283 18.082 14.3263 18.478C13.9303 18.868 13.3723 19.063 12.6523 19.063C11.8783 19.063 11.2633 18.85 10.8073 18.424C10.3513 17.998 10.1233 17.377 10.1233 16.561H12.0943C12.0943 16.819 12.1363 17.002 12.2203 17.11C12.3043 17.212 12.4183 17.263 12.5623 17.263C12.6823 17.263 12.7753 17.224 12.8413 17.146C12.9073 17.068 12.9403 16.933 12.9403 16.741V12.628H14.9293Z" fill="white"/>
<path d="M18.2849 19.063C17.5229 19.063 16.8929 18.886 16.3949 18.532C15.9029 18.172 15.6359 17.647 15.5939 16.957H17.7179C17.7479 17.323 17.9099 17.506 18.2039 17.506C18.3119 17.506 18.4019 17.482 18.4739 17.434C18.5519 17.38 18.5909 17.299 18.5909 17.191C18.5909 17.041 18.5099 16.921 18.3479 16.831C18.1859 16.735 17.9339 16.627 17.5919 16.507C17.1839 16.363 16.8449 16.222 16.5749 16.084C16.3109 15.946 16.0829 15.745 15.8909 15.481C15.6989 15.217 15.6059 14.878 15.6119 14.464C15.6119 14.05 15.7169 13.699 15.9269 13.411C16.1429 13.117 16.4339 12.895 16.7999 12.745C17.1719 12.595 17.5889 12.52 18.0509 12.52C18.8309 12.52 19.4489 12.7 19.9049 13.06C20.3669 13.42 20.6099 13.927 20.6339 14.581H18.4829C18.4769 14.401 18.4319 14.272 18.3479 14.194C18.2639 14.116 18.1619 14.077 18.0419 14.077C17.9579 14.077 17.8889 14.107 17.8349 14.167C17.7809 14.221 17.7539 14.299 17.7539 14.401C17.7539 14.545 17.8319 14.665 17.9879 14.761C18.1499 14.851 18.4049 14.962 18.7529 15.094C19.1549 15.244 19.4849 15.388 19.7429 15.526C20.0069 15.664 20.2349 15.856 20.4269 16.102C20.6189 16.348 20.7149 16.657 20.7149 17.029C20.7149 17.419 20.6189 17.77 20.4269 18.082C20.2349 18.388 19.9559 18.628 19.5899 18.802C19.2239 18.976 18.7889 19.063 18.2849 19.063Z" fill="white"/>
</svg>
