<svg width="32" height="32" viewBox="0 0 32 32" fill="none" xmlns="http://www.w3.org/2000/svg">
<rect width="32" height="32" rx="3" fill="#ECECEC"/>
<path d="M28.1938 8.09675H3.80632C2.80864 8.09675 2 8.90572 2 9.90307V16.2256C2 17.2233 2.80896 18.0319 3.80632 18.0319H17.3726L19.2316 22.4463C19.4783 23.0345 20.247 23.1907 20.7031 22.7349L21.8709 21.5677L23.4904 23.1872C23.8432 23.5401 24.415 23.5401 24.7675 23.1872L26.1224 21.8323C26.4753 21.4795 26.4753 20.9077 26.1224 20.5552L24.5029 18.9356L25.4061 18.0325H28.1934C29.191 18.0325 29.9997 17.2235 29.9997 16.2262L30 9.90332C30 8.90564 29.1914 8.09675 28.1938 8.09675ZM25.4842 21.1937L24.1293 22.5487L21.8712 20.2906L20.0649 22.0969L16.4518 13.5161L25.0326 17.1291L23.2263 18.9355L25.4842 21.1937Z" fill="#D8D8D8"/>
</svg>
