<svg width="32" height="32" viewBox="0 0 32 32" fill="none" xmlns="http://www.w3.org/2000/svg">
<rect width="32" height="32" rx="3" fill="#ECECEC"/>
<rect x="2.5" y="11.5" width="27" height="10" rx="2.5" fill="#79B7FF" stroke="#4290EA"/>
<mask id="path-3-inside-1_406_362" fill="white">
<path fill-rule="evenodd" clip-rule="evenodd" d="M27.3053 23.738C27.554 23.8762 27.6976 24.1384 27.6782 24.4225C27.6588 24.7067 27.4834 24.9474 27.2171 25.051L24.7238 26.0199L26.9478 29.1228C27.0493 29.2797 27.1069 29.456 27.1188 29.6371L27.1546 29.6857L27.1212 29.7071C27.1212 29.7859 27.1127 29.8653 27.0955 29.944C27.0333 30.228 26.8628 30.4717 26.6182 30.6284L25.7007 31.2164C25.1943 31.541 24.5178 31.3929 24.1932 30.8865L21.967 27.785L20.047 29.6459C19.8677 29.8187 19.624 29.8864 19.3878 29.8347C19.3523 29.8269 19.3173 29.8174 19.2829 29.8043C19.0166 29.7033 18.8383 29.4633 18.8167 29.1795L18.1117 19.9208C18.0902 19.6537 18.2189 19.3972 18.444 19.253C18.6691 19.1087 18.9556 19.1007 19.1896 19.2301L27.3053 23.738Z"/>
</mask>
<path fill-rule="evenodd" clip-rule="evenodd" d="M27.3053 23.738C27.554 23.8762 27.6976 24.1384 27.6782 24.4225C27.6588 24.7067 27.4834 24.9474 27.2171 25.051L24.7238 26.0199L26.9478 29.1228C27.0493 29.2797 27.1069 29.456 27.1188 29.6371L27.1546 29.6857L27.1212 29.7071C27.1212 29.7859 27.1127 29.8653 27.0955 29.944C27.0333 30.228 26.8628 30.4717 26.6182 30.6284L25.7007 31.2164C25.1943 31.541 24.5178 31.3929 24.1932 30.8865L21.967 27.785L20.047 29.6459C19.8677 29.8187 19.624 29.8864 19.3878 29.8347C19.3523 29.8269 19.3173 29.8174 19.2829 29.8043C19.0166 29.7033 18.8383 29.4633 18.8167 29.1795L18.1117 19.9208C18.0902 19.6537 18.2189 19.3972 18.444 19.253C18.6691 19.1087 18.9556 19.1007 19.1896 19.2301L27.3053 23.738Z" fill="#ECECEC"/>
<path d="M27.6782 24.4225L28.4265 24.4735L28.4265 24.4735L27.6782 24.4225ZM27.3053 23.738L26.9411 24.3936L26.9411 24.3937L27.3053 23.738ZM27.2171 25.051L27.4887 25.75L27.4889 25.75L27.2171 25.051ZM24.7238 26.0199L24.4521 25.3208L23.551 25.671L24.1142 26.4568L24.7238 26.0199ZM26.9478 29.1228L27.5775 28.7154L27.5678 28.7004L27.5574 28.6859L26.9478 29.1228ZM27.1188 29.6371L26.3705 29.6865L26.3849 29.9055L26.5151 30.0821L27.1188 29.6371ZM27.1546 29.6857L27.5593 30.3171L28.2334 29.8852L27.7583 29.2407L27.1546 29.6857ZM27.1212 29.7071L26.7165 29.0757L26.3708 29.2972L26.3712 29.7079L27.1212 29.7071ZM26.6182 30.6284L26.2136 29.997L26.6182 30.6284ZM25.7007 31.2164L25.296 30.585L25.2959 30.585L25.7007 31.2164ZM24.1932 30.8865L24.8247 30.4818L24.814 30.4652L24.8025 30.4491L24.1932 30.8865ZM21.967 27.785L22.5763 27.3476L22.0693 26.6414L21.445 27.2464L21.967 27.785ZM20.047 29.6459L20.5674 30.1859L20.5689 30.1845L20.047 29.6459ZM19.2829 29.8043L19.55 29.1035L19.5488 29.103L19.2829 29.8043ZM18.8167 29.1795L19.5646 29.1226L19.5646 29.1225L18.8167 29.1795ZM18.1117 19.9208L18.8596 19.8639L18.8593 19.8607L18.1117 19.9208ZM18.444 19.253L18.0393 18.6215L18.0393 18.6215L18.444 19.253ZM19.1896 19.2301L19.5538 18.5744L19.5525 18.5737L19.1896 19.2301ZM28.4265 24.4735C28.4657 23.8974 28.1708 23.3608 27.6694 23.0823L26.9411 24.3937C26.9419 24.3941 26.9409 24.3937 26.9392 24.3919C26.9375 24.3902 26.9356 24.3878 26.9339 24.3847C26.9322 24.3816 26.9311 24.3785 26.9305 24.3757C26.9298 24.3728 26.93 24.3712 26.9299 24.3715L28.4265 24.4735ZM27.4889 25.75C28.0282 25.5402 28.3875 25.0456 28.4265 24.4735L26.9299 24.3715C26.9298 24.3728 26.9297 24.372 26.9306 24.3696C26.9315 24.3673 26.9329 24.3644 26.9352 24.3613C26.9374 24.3583 26.9399 24.3558 26.9423 24.354C26.9447 24.3521 26.946 24.3517 26.9452 24.352L27.4889 25.75ZM24.9955 26.719L27.4887 25.75L26.9454 24.3519L24.4521 25.3208L24.9955 26.719ZM27.5574 28.6859L25.3334 25.583L24.1142 26.4568L26.3382 29.5597L27.5574 28.6859ZM27.8672 29.5878C27.8469 29.2795 27.7486 28.9799 27.5775 28.7154L26.3181 29.5302C26.35 29.5796 26.3669 29.6325 26.3705 29.6865L27.8672 29.5878ZM27.7583 29.2407L27.7226 29.1921L26.5151 30.0821L26.5509 30.1307L27.7583 29.2407ZM27.5258 30.3386L27.5593 30.3171L26.7499 29.0542L26.7165 29.0757L27.5258 30.3386ZM27.8282 30.1044C27.8569 29.9731 27.8713 29.8397 27.8712 29.7064L26.3712 29.7079C26.3712 29.7321 26.3686 29.7574 26.3628 29.7837L27.8282 30.1044ZM27.0229 31.2599C27.4338 30.9965 27.7232 30.584 27.8282 30.1044L26.3628 29.7837C26.3435 29.8721 26.2918 29.9468 26.2136 29.997L27.0229 31.2599ZM26.1053 31.8479L27.0229 31.2599L26.2136 29.997L25.296 30.585L26.1053 31.8479ZM23.5618 31.2911C24.1098 32.1463 25.2502 32.396 26.1054 31.8478L25.2959 30.585C25.1384 30.686 24.9258 30.6396 24.8247 30.4818L23.5618 31.2911ZM21.3577 28.2223L23.5839 31.3238L24.8025 30.4491L22.5763 27.3476L21.3577 28.2223ZM20.5689 30.1845L22.489 28.3235L21.445 27.2464L19.525 29.1074L20.5689 30.1845ZM19.2275 30.5673C19.7096 30.6729 20.2084 30.5319 20.5674 30.1859L19.5265 29.1059C19.5253 29.1071 19.5253 29.1068 19.5269 29.1058C19.5285 29.105 19.5308 29.1039 19.5338 29.103C19.5368 29.1022 19.5399 29.1017 19.5427 29.1016C19.5455 29.1015 19.5474 29.1018 19.5482 29.102L19.2275 30.5673ZM19.0157 30.5051C19.0956 30.5355 19.1688 30.5545 19.2275 30.5673L19.5482 29.102C19.5357 29.0993 19.5389 29.0993 19.55 29.1035L19.0157 30.5051ZM18.0689 29.2364C18.1124 29.8081 18.4766 30.3007 19.0169 30.5056L19.5488 29.103C19.5486 29.103 19.5502 29.1036 19.5526 29.1054C19.555 29.1072 19.5574 29.1095 19.5595 29.1123C19.5616 29.1152 19.563 29.1179 19.5638 29.1201C19.5647 29.1224 19.5646 29.1235 19.5646 29.1226L18.0689 29.2364ZM17.3639 19.9778L18.0689 29.2364L19.5646 29.1225L18.8596 19.8639L17.3639 19.9778ZM18.0393 18.6215C17.5833 18.9138 17.3202 19.435 17.3641 19.981L18.8593 19.8607C18.8603 19.8725 18.8546 19.8807 18.8487 19.8844L18.0393 18.6215ZM19.5525 18.5737C19.08 18.3125 18.4987 18.3271 18.0393 18.6215L18.8487 19.8844C18.8395 19.8904 18.8312 19.8889 18.8268 19.8865L19.5525 18.5737ZM27.6694 23.0824L19.5538 18.5744L18.8254 19.8857L26.9411 24.3936L27.6694 23.0824Z" fill="#878787" mask="url(#path-3-inside-1_406_362)"/>
</svg>
